<svg width="24" height="24" viewBox="0 0 24 24" fill="none" xmlns="http://www.w3.org/2000/svg">
<path d="M12.1609 2.00364C11.8299 1.94754 11.4689 2.08394 11.2239 2.37844C6.41488 8.14474 5.00489 11.1146 5.00489 14.9956C5.00489 18.8596 8.13889 21.9916 12.0049 21.9916C15.8709 21.9916 19.0049 18.8596 19.0049 14.9956C19.0049 13.5706 18.6859 12.4806 17.9739 11.3416C17.6679 10.8526 16.1439 8.84884 15.7239 8.21854C14.6909 6.66974 13.8009 4.94834 12.9429 2.65944C12.8079 2.30064 12.4919 2.05974 12.1609 2.00364ZM11.7229 4.92104C12.3849 6.49304 13.2459 8.11104 14.0669 9.34284C14.5359 10.0446 16.0049 12.0036 16.2549 12.4036C16.7749 13.2346 17.0049 13.9576 17.0049 14.9956C17.0049 17.7556 14.7659 19.9926 12.0049 19.9926C9.24389 19.9926 7.01889 17.7556 7.00489 14.9956C6.98889 11.8196 8.22889 9.32314 11.7229 4.92104ZM10.6289 10.0336C10.3849 10.1106 10.1629 10.2846 10.0359 10.5296C9.1999 12.1456 8.9139 13.7556 9.0359 15.1516C9.0839 15.7016 9.54888 16.1056 10.0989 16.0576C10.6489 16.0096 11.0839 15.5146 11.0359 14.9646C10.9459 13.9346 11.1609 12.7346 11.8169 11.4666C12.0709 10.9766 11.8699 10.3776 11.3799 10.1236C11.1349 9.99684 10.8719 9.95574 10.6289 10.0336Z" fill="#2A343D"/>
</svg>
